<svg width="28" height="28" viewBox="0 0 28 28" fill="none" xmlns="http://www.w3.org/2000/svg">
    <path d="M10.6572 24.2355V20.6681C10.6572 19.7575 11.4008 19.0193 12.3181 19.0193H15.6713C16.1118 19.0193 16.5343 19.193 16.8458 19.5022C17.1573 19.8114 17.3323 20.2308 17.3323 20.6681V24.2355C17.3295 24.6141 17.479 24.9781 17.7477 25.2468C18.0164 25.5155 18.382 25.6666 18.7634 25.6666H21.0511C22.1195 25.6693 23.1452 25.2499 23.9017 24.5009C24.6581 23.7518 25.0833 22.7347 25.0833 21.674V11.5113C25.0833 10.6545 24.7007 9.84173 24.0387 9.29203L16.2563 3.12177C14.9026 2.03991 12.9629 2.07484 11.6496 3.20473L4.04481 9.29203C3.35149 9.82553 2.9371 10.6407 2.91663 11.5113V21.6637C2.91663 23.8744 4.7219 25.6666 6.94883 25.6666H9.1843C9.97639 25.6666 10.6201 25.0322 10.6259 24.2459L10.6572 24.2355Z" fill="#DADFE7"/>
</svg>
