<svg width="28" height="30" viewBox="0 0 28 30" fill="none" xmlns="http://www.w3.org/2000/svg">
    <path fill-rule="evenodd" clip-rule="evenodd" d="M21.8259 12.2623C21.8259 13.7276 22.2132 14.5912 23.0655 15.5864C23.7113 16.3197 23.9177 17.2608 23.9177 18.2819C23.9177 19.3019 23.5826 20.2701 22.9112 21.0562C22.0323 21.9985 20.7928 22.6002 19.5278 22.7047C17.6946 22.861 15.8603 22.9926 14.0016 22.9926C12.1418 22.9926 10.3086 22.9139 8.4754 22.7047C7.20922 22.6002 5.96971 21.9985 5.09196 21.0562C4.42061 20.2701 4.08435 19.3019 4.08435 18.2819C4.08435 17.2608 4.2919 16.3197 4.93659 15.5864C5.81549 14.5912 6.17726 13.7276 6.17726 12.2623V11.7653C6.17726 9.80298 6.66657 8.51986 7.67418 7.26376C9.17226 5.4319 11.5736 4.33325 13.9494 4.33325H14.0538C16.4806 4.33325 18.9596 5.48477 20.4322 7.39536C21.3876 8.62561 21.8259 9.85468 21.8259 11.7653V12.2623ZM10.5872 25.4042C10.5872 24.8167 11.1264 24.5476 11.6249 24.4325C12.2082 24.3091 15.7621 24.3091 16.3453 24.4325C16.8439 24.5476 17.383 24.8167 17.383 25.4042C17.3541 25.9635 17.0259 26.4594 16.5726 26.7743C15.9847 27.2326 15.2948 27.5228 14.5736 27.6274C14.1747 27.6791 13.7828 27.6803 13.3978 27.6274C12.6755 27.5228 11.9856 27.2326 11.3988 26.7731C10.9443 26.4594 10.6162 25.9635 10.5872 25.4042Z" fill="#B7BAC2"/>
    <rect x="17.4991" y="0.5" width="9" height="9" rx="4.5" fill="#5BCBEF" stroke="#FBFCFF"/>
</svg>
