<svg width="28" height="28" viewBox="0 0 28 28" fill="none" xmlns="http://www.w3.org/2000/svg">
    <path fill-rule="evenodd" clip-rule="evenodd" d="M20.7304 9.77877H25.6667C25.6667 5.81536 23.2919 3.5 19.2682 3.5H8.73189C4.70819 3.5 2.33337 5.81536 2.33337 9.72821V18.2718C2.33337 22.1846 4.70819 24.5 8.73189 24.5H19.2682C23.2919 24.5 25.6667 22.1846 25.6667 18.2718V17.9078H20.7304C18.4395 17.9078 16.5823 16.0971 16.5823 13.8635C16.5823 11.6299 18.4395 9.81921 20.7304 9.81921V9.77877ZM20.7304 11.5178H24.7956C25.2767 11.5178 25.6667 11.8981 25.6667 12.3671V15.3195C25.6611 15.7862 25.2744 16.1633 24.7956 16.1688H20.8237C19.6639 16.184 18.6498 15.4098 18.3867 14.3084C18.255 13.6247 18.4399 12.9192 18.892 12.3809C19.344 11.8427 20.0169 11.5268 20.7304 11.5178ZM20.9067 14.6218H21.2904C21.783 14.6218 22.1823 14.2325 22.1823 13.7523C22.1823 13.2721 21.783 12.8828 21.2904 12.8828H20.9067C20.6711 12.8801 20.4443 12.9694 20.2767 13.1309C20.1091 13.2923 20.0148 13.5125 20.0149 13.7422C20.0148 14.2241 20.4125 14.6163 20.9067 14.6218ZM7.86078 9.77877H14.446C14.9385 9.77877 15.3378 9.38947 15.3378 8.90924C15.3378 8.42902 14.9385 8.03972 14.446 8.03972H7.86078C7.37225 8.03969 6.97461 8.42286 6.96893 8.89913C6.9689 9.38102 7.36655 9.77323 7.86078 9.77877Z" fill="#DADFE7"/>
</svg>
