<svg width="28" height="28" viewBox="0 0 28 28" fill="none" xmlns="http://www.w3.org/2000/svg">
    <path fill-rule="evenodd" clip-rule="evenodd" d="M20.7303 9.77877H25.6666C25.6666 5.81536 23.2918 3.5 19.2681 3.5H8.73183C4.70813 3.5 2.33331 5.81536 2.33331 9.72821V18.2718C2.33331 22.1846 4.70813 24.5 8.73183 24.5H19.2681C23.2918 24.5 25.6666 22.1846 25.6666 18.2718V17.9078H20.7303C18.4394 17.9078 16.5822 16.0971 16.5822 13.8635C16.5822 11.6299 18.4394 9.81921 20.7303 9.81921V9.77877ZM20.7303 11.5178H24.7955C25.2766 11.5178 25.6666 11.8981 25.6666 12.3671V15.3195C25.661 15.7862 25.2743 16.1633 24.7955 16.1688H20.8237C19.6639 16.184 18.6497 15.4098 18.3866 14.3084C18.2549 13.6247 18.4398 12.9192 18.8919 12.3809C19.3439 11.8427 20.0169 11.5268 20.7303 11.5178ZM20.9066 14.6218H21.2903C21.7829 14.6218 22.1822 14.2325 22.1822 13.7523C22.1822 13.2721 21.7829 12.8828 21.2903 12.8828H20.9066C20.6711 12.8801 20.4442 12.9694 20.2766 13.1309C20.1091 13.2923 20.0148 13.5125 20.0148 13.7422C20.0148 14.2241 20.4124 14.6163 20.9066 14.6218ZM7.86072 9.77877H14.4459C14.9385 9.77877 15.3378 9.38947 15.3378 8.90924C15.3378 8.42902 14.9385 8.03972 14.4459 8.03972H7.86072C7.37219 8.03969 6.97455 8.42286 6.96887 8.89913C6.96884 9.38102 7.36649 9.77323 7.86072 9.77877Z" fill="#4162FF"/>
</svg>
